<svg width="13" height="13" viewBox="0 0 13 13" fill="none" xmlns="http://www.w3.org/2000/svg">
<path d="M4.11125 2.93042C3.68875 2.50792 3.68875 1.82 4.11125 1.3975C4.53375 0.975002 5.22167 0.975002 5.64417 1.3975C6.06667 1.82 6.06667 2.50792 5.64417 2.93042C5.21625 3.35834 4.53375 3.35834 4.11125 2.93042ZM3.25 8.66667V4.33334C3.25 4.03542 3.00625 3.79167 2.70833 3.79167C2.41042 3.79167 2.16667 4.03542 2.16667 4.33334V8.66667C2.16667 10.1617 3.38 11.375 4.875 11.375H7.58333C7.88125 11.375 8.125 11.1313 8.125 10.8333C8.125 10.5354 7.88125 10.2917 7.58333 10.2917H4.875C3.97583 10.2917 3.25 9.56583 3.25 8.66667ZM10.4433 10.4813L8.40125 8.43917C8.20083 8.23875 7.92458 8.125 7.6375 8.125H6.22917V6.13167C6.81958 6.61375 7.67 7.0525 8.50417 7.22584C8.86708 7.30167 9.20833 7.03084 9.20833 6.6625C9.20833 6.37542 8.99708 6.1425 8.71 6.09375C7.94083 5.96375 7.15 5.54667 6.67875 5.02667L5.92042 4.18709C5.8175 4.07334 5.6875 3.98125 5.54667 3.91625C5.38958 3.84042 5.21083 3.79167 5.02667 3.79167H5.01042C4.33875 3.79167 3.79167 4.33875 3.79167 5.01042V8.125C3.79167 9.02417 4.5175 9.75 5.41667 9.75H8.16292L9.66875 11.2558C9.88 11.4671 10.2321 11.4671 10.4433 11.2558C10.66 11.0446 10.66 10.6979 10.4433 10.4813Z" fill="#223E7C"/>
</svg>
